<svg version="1.0" xmlns="http://www.w3.org/2000/svg" width="458.667" height="458.667" viewBox="0 0 344 344"><path d="M154.3 5.8c-7.2 3.3-28.7 13.7-47.7 23.3L72 46.5l8.7.8c11.9 1.2 157.3 1.4 174.8.3l14-.9L234 29.1C197.1 10.7 176 1.2 170.6.4c-2.3-.4-6.5 1-16.3 5.4zM73.7 58.7c-.4.3-.7 24.6-.7 54V166h88v-45h-18.2c-20.5 0-25.3-.8-27.1-4.7-1-2.2-.8-2.8 1.1-4.3 3.7-3 11.6-3.5 59.7-3.5 34.5 0 47.4.3 51.7 1.3 5.9 1.4 7.9 3.1 7.1 6.2-1 3.8-4.9 4.5-28 4.8l-22.3.3V167l14.8-.5c8.1-.4 26.9-1 41.9-1.4 14.9-.5 27.6-1.1 28.1-1.5.5-.3 1.2-15.6 1.5-34.3.4-18.6 1-42.2 1.4-52.6l.6-18.7h-99.5c-54.7 0-99.8.3-100.1.7zm-.2 117.5c-.3.7-.4 25.1-.3 54.3l.3 53h199v-108l-43.7-.3-43.8-.2v50h18.4c10.1 0 20.8.5 23.7 1 9.2 1.7 11.2 7.1 3.7 10.1-4.4 1.7-92.4 2.6-104.2 1-8.8-1.2-12.3-3.3-11.2-6.8 1.2-3.9 5.1-4.7 25.9-5.1l19.7-.4V175h-43.5c-33.9 0-43.7.3-44 1.2zm54 116.9c-38.2.6-52.5 1.4-52.5 2.9 0 1.3 25.3 14.3 61.1 31.5l34.6 16.6 23.4-11.2c27.4-13 67.5-33.1 70.4-35.3 1.1-.8 1.7-1.7 1.4-2.1-2.2-2.1-74.6-3.4-138.4-2.4z"/></svg>