<svg width="53" height="54" fill="currentColor" xmlns="http://www.w3.org/2000/svg"><g opacity=".7"><path d="M9.255 22.123l5.268-.557 1.67 15.804-5.269.556-1.67-15.803zm11.243-2.957a.882.882 0 00.785-.972l-.186-1.757a.884.884 0 00-.972-.785L2.562 17.51a.882.882 0 00-.786.972l.186 1.757a.884.884 0 00.972.785l17.564-1.858zM10.413 7.796a2.622 2.622 0 00-2.286 2.019l4.946-.523a2.618 2.618 0 00-2.66-1.496zm-5.407 7.678l12.299-1.3a.884.884 0 00.785-.973l-.186-1.756a.883.883 0 00-.971-.786L4.635 11.961a.884.884 0 00-.785.972l.185 1.757a.883.883 0 00.971.784zm18.199 11.947l1.087-7.256a4.437 4.437 0 014.363-3.765h13.356a4.436 4.436 0 014.364 3.766l1.096 7.283a17.95 17.95 0 012.925 3.577L49.144 18.52a5.283 5.283 0 00-5.269-4.77H26.791a5.26 5.26 0 00-4.063 1.93c.064.185.108.377.13.572l.186 1.756a2.65 2.65 0 01-1.739 2.765l-1.037 10.28a17.737 17.737 0 012.937-3.632zm-8.148 24.297a2.623 2.623 0 002.29-2.017l-4.951.524a2.615 2.615 0 002.661 1.493zm7.856-9.713a.884.884 0 00.785-.972l-.186-1.757a.882.882 0 00-.971-.785L4.97 40.346a.884.884 0 00-.785.972l.187 1.759a.879.879 0 00.972.785l17.568-1.857z"/><path d="M51.209 39.412a15.89 15.89 0 00-31.422-2.406l2.573-.272a2.652 2.652 0 012.915 2.357l.185 1.757a2.65 2.65 0 01-2.357 2.915l-.162.018c.135.27.221.56.256.86l.186 1.756a2.63 2.63 0 01-1.316 2.573c.326.508.683.997 1.068 1.461a3.581 3.581 0 002.747 1.302h18.903a3.566 3.566 0 002.719-1.26 15.823 15.823 0 003.705-11.061zm-2.6.576h-.074a.883.883 0 01-.884-.81A12.483 12.483 0 0036.73 27.96c-.464-.05-.93-.076-1.396-.077a.883.883 0 010-1.767 15.07 15.07 0 011.59.089 14.274 14.274 0 0112.492 12.83.883.883 0 01-.806.95v.003z"/><path d="M20.464 44.041l-12.299 1.3a.882.882 0 00-.785.972l.186 1.758a.883.883 0 00.971.784l12.299-1.3a.884.884 0 00.785-.972l-.185-1.756a.883.883 0 00-.972-.786z"/></g></svg>