<svg width="51" height="52" fill="currentColor" xmlns="http://www.w3.org/2000/svg"><g opacity=".7" clip-path="url(#clip0_985_1374)"><path d="M30.92 22.59a5.281 5.281 0 00-.536-.029c-1.867 0-3.726.876-4.883 2.267-1.159-1.39-3.018-2.267-4.883-2.267-.185 0-.364.01-.538.028-2.102.226-3.58.936-4.521 2.17-.933 1.225-1.237 2.884-.903 4.932.487 2.972 4.335 6.59 7.427 9.499l.07.067c.862.81 1.605 1.51 2.09 2.032.065.073.655.72 1.302.72.65 0 1.227-.657 1.28-.72.515-.558 1.35-1.349 2.175-2.13 3.057-2.9 6.862-6.509 7.344-9.469.335-2.047.033-3.705-.9-4.93-.94-1.235-2.42-1.945-4.525-2.17z"/><path d="M40.493 16.893l2.28-2.406c.6-.634.574-1.635-.06-2.235L40.8 10.438a1.581 1.581 0 00-2.235.06l-2.609 2.752a20.417 20.417 0 00-6.777-2.534V7.353h3.108c.874 0 1.582-.708 1.582-1.582v-3.69c0-.873-.708-1.581-1.582-1.581H18.713c-.873 0-1.581.708-1.581 1.581v3.69c0 .874.708 1.582 1.581 1.582h3.064v3.372a20.42 20.42 0 00-6.862 2.601c-.016-.017-.03-.034-.047-.05l-2.965-2.81a1.582 1.582 0 00-2.235.06l-1.814 1.913c-.6.633-.574 1.634.06 2.235l2.475 2.346a20.48 20.48 0 00-5.446 13.922C4.943 42.279 14.165 51.5 25.5 51.5c11.336 0 20.557-9.222 20.557-20.558a20.48 20.48 0 00-5.564-14.05zM25.5 47.813c-9.302 0-16.87-7.569-16.87-16.87 0-9.303 7.568-16.87 16.87-16.87 9.302 0 16.87 7.567 16.87 16.87 0 9.301-7.568 16.87-16.87 16.87z"/></g><defs><clipPath id="clip0_985_1374"><path fill="#fff" transform="translate(0 .5)" d="M0 0h51v51H0z"/></clipPath></defs></svg>