<svg width="36" height="36" fill="none" xmlns="http://www.w3.org/2000/svg"><path d="M31.453 20.186l.32-3.41c.253-2.677.378-4.016-.08-4.57a1.39 1.39 0 00-.945-.514c-.666-.058-1.502.894-3.175 2.798-.865.985-1.297 1.477-1.78 1.554a1.295 1.295 0 01-.786-.126c-.446-.224-.743-.833-1.337-2.05L20.538 7.45C19.416 5.15 18.854 4 18 4c-.854 0-1.416 1.15-2.538 3.45l-3.132 6.418c-.594 1.217-.891 1.826-1.337 2.05a1.288 1.288 0 01-.786.126c-.483-.077-.915-.569-1.78-1.554-1.673-1.904-2.51-2.856-3.175-2.798a1.39 1.39 0 00-.945.515c-.458.553-.332 1.892-.08 4.57l.32 3.41c.53 5.617.793 8.426 2.45 10.12C8.651 32 11.132 32 16.096 32h3.807c4.963 0 7.444 0 9.1-1.694 1.655-1.693 1.92-4.502 2.449-10.12z" fill="#1C8AC8"/></svg>