<svg width="36" height="36" fill="none" xmlns="http://www.w3.org/2000/svg"><path d="M29 18c0 6.075-4.925 11-11 11S7 24.075 7 18 11.925 7 18 7s11 4.925 11 11z" fill="#1C8AC8"/><path fill-rule="evenodd" clip-rule="evenodd" d="M18 1.875c.621 0 1.125.504 1.125 1.125v1.5a1.125 1.125 0 01-2.25 0V3c0-.621.504-1.125 1.125-1.125zM6.598 6.598c.44-.44 1.152-.44 1.59 0l.59.59a1.125 1.125 0 11-1.59 1.59l-.59-.59a1.125 1.125 0 010-1.59zm22.804 0c.439.44.439 1.152 0 1.591l-.59.59a1.125 1.125 0 01-1.59-1.591l.589-.59a1.124 1.124 0 011.59 0zM1.875 18c0-.621.504-1.125 1.125-1.125h1.5a1.125 1.125 0 010 2.25H3A1.125 1.125 0 011.875 18zm28.5 0c0-.621.504-1.125 1.125-1.125H33a1.125 1.125 0 010 2.25h-1.5A1.125 1.125 0 0130.375 18zm-3.154 9.221a1.126 1.126 0 011.591 0l.59.59a1.125 1.125 0 01-1.591 1.59l-.59-.588a1.125 1.125 0 010-1.592zm-18.443 0c.44.44.44 1.152 0 1.592l-.59.59a1.125 1.125 0 01-1.59-1.592l.59-.59a1.124 1.124 0 011.59 0zM18 30.376c.621 0 1.125.504 1.125 1.125V33a1.125 1.125 0 01-2.25 0v-1.5c0-.621.504-1.125 1.125-1.125z" fill="#1C8AC8"/></svg>