<svg width="56" height="56" fill="currentColor" xmlns="http://www.w3.org/2000/svg"><g opacity=".7" clip-path="url(#clip0_985_1364)"><path fill-rule="evenodd" clip-rule="evenodd" d="M2.505 54.92A2.51 2.51 0 010 52.413V32.638a2.508 2.508 0 012.505-2.506h4.758v12.396c0 .714 1.085.714 1.085 0V30.132h4.635a2.5 2.5 0 012.501 2.506v19.776a2.508 2.508 0 01-2.505 2.505H2.505zm7.896-2.742c-2.782 0-2.776-4.223 0-4.223 2.777 0 2.782 4.224 0 4.224z"/><path fill-rule="evenodd" clip-rule="evenodd" d="M34.772 53.35H17.239c-.258 0-2.156-.986-2.528-1.167a.547.547 0 01-.307-.489V33.306c0-1.587 7.106-.221 6.86-12.739-.023-1.153.023-2.437.89-3.043.539-.376 1.28-.385 2.194-.028 1.972.774 3.45 3.772 3.51 7.123.05 2.641-.068 5.431-1.868 8.145h13.44c.132 0 .24.037.322.097a2.95 2.95 0 01.526 5.51c1.671 1.565.992 4.359-1.198 4.988 1.6 1.769.533 4.63-1.844 4.906 1.711 2.05-.06 5.099-2.332 5.099a.616.616 0 01-.132-.014z"/><path opacity=".7" d="M34.44 29.623V9.63h6.384c2.576 0 4.452.522 5.628 1.568 1.195 1.045 1.792 2.482 1.792 4.312a6.62 6.62 0 01-.728 3.052c-.485.952-1.297 1.717-2.436 2.296-1.12.578-2.65.868-4.592.868h-1.82v7.896H34.44zm-2.24-2.996V23.91h10.78v2.716H32.2zm0-4.9v-3.472h8.204v3.472H32.2zm7.868-3.472c.803 0 1.494-.084 2.072-.252.58-.187 1.027-.476 1.344-.868.318-.392.476-.887.476-1.484 0-.859-.27-1.493-.812-1.904-.54-.43-1.39-.644-2.548-.644h-1.932v5.152h1.4z"/><path fill-rule="evenodd" clip-rule="evenodd" d="M44.12 34.532c-1.334 0-1.657-1.875-.397-2.316 5.92-2.072 9.89-7.69 9.89-13.96 0-8.157-6.636-14.792-14.793-14.792a14.75 14.75 0 00-14.37 11.272c-.374 1.529-2.693.957-2.32-.566A17.138 17.138 0 0138.82 1.08C48.295 1.08 56 8.787 56 18.26c0 7.171-4.395 14.273-11.524 16.226a1.355 1.355 0 01-.356.046z"/></g><defs><clipPath id="clip0_985_1364"><path fill="#fff" d="M0 0h56v56H0z"/></clipPath></defs></svg>