<svg width="36" height="36" fill="none" xmlns="http://www.w3.org/2000/svg"><path fill-rule="evenodd" clip-rule="evenodd" d="M14.63 5.68c-.342.29-.512.436-.694.558a3.79 3.79 0 01-1.38.571c-.214.043-.437.06-.884.096-1.122.09-1.683.135-2.15.3A3.798 3.798 0 007.204 9.52c-.165.468-.21 1.03-.3 2.151-.035.447-.053.67-.096.885a3.799 3.799 0 01-.57 1.379c-.123.182-.268.352-.559.693-.73.857-1.095 1.285-1.309 1.733a3.798 3.798 0 000 3.276c.214.448.58.876 1.31 1.733.29.34.435.511.557.693.28.417.474.886.571 1.38.043.214.06.437.096.884.09 1.122.135 1.683.3 2.15a3.798 3.798 0 002.316 2.317c.468.165 1.03.21 2.151.3.447.035.67.053.885.096.493.097.961.291 1.379.57.182.123.352.268.693.559.857.73 1.285 1.095 1.733 1.309a3.798 3.798 0 003.276 0c.448-.214.876-.58 1.733-1.31.34-.29.511-.435.693-.557.417-.28.886-.474 1.38-.571.214-.043.437-.06.884-.096 1.122-.09 1.683-.135 2.15-.3a3.798 3.798 0 002.317-2.316c.165-.468.21-1.03.3-2.151.035-.447.053-.67.096-.885a3.8 3.8 0 01.57-1.379c.123-.182.268-.352.559-.693.73-.857 1.095-1.285 1.309-1.733a3.798 3.798 0 000-3.276c-.214-.448-.58-.876-1.31-1.733-.29-.34-.435-.511-.557-.693a3.799 3.799 0 01-.571-1.38c-.043-.214-.06-.437-.096-.884-.09-1.122-.135-1.683-.3-2.15a3.798 3.798 0 00-2.316-2.317c-.468-.165-1.03-.21-2.151-.3-.447-.035-.67-.053-.885-.096a3.797 3.797 0 01-1.379-.57c-.182-.123-.352-.268-.693-.559-.857-.73-1.285-1.095-1.733-1.309a3.798 3.798 0 00-3.276 0c-.448.214-.876.58-1.733 1.31zm9.493 9.328a1.14 1.14 0 00-1.611-1.611l-6.79 6.79-2.234-2.232a1.14 1.14 0 00-1.61 1.611l3.037 3.039a1.14 1.14 0 001.612 0l7.596-7.597z" fill="#1C8AC8"/></svg>