<svg width="20" height="20" fill="none" xmlns="http://www.w3.org/2000/svg"><path d="M10 14.167c.236 0 .434-.08.594-.24.16-.16.24-.358.24-.594V10a.807.807 0 00-.24-.594.803.803 0 00-.594-.24.807.807 0 00-.594.24.803.803 0 00-.24.594v3.333c0 .236.08.434.24.595.16.16.358.24.594.239zM10 7.5c.236 0 .434-.08.594-.24.16-.16.24-.358.24-.593a.807.807 0 00-.24-.595.803.803 0 00-.594-.239.807.807 0 00-.594.24.803.803 0 00-.24.594c0 .236.08.434.24.594.16.16.358.24.594.239zm0 10.833a8.11 8.11 0 01-3.25-.656 8.43 8.43 0 01-2.646-1.781 8.41 8.41 0 01-1.78-2.646A8.13 8.13 0 011.666 10a8.11 8.11 0 01.656-3.25 8.428 8.428 0 011.781-2.646 8.41 8.41 0 012.646-1.78A8.13 8.13 0 0110 1.666a8.11 8.11 0 013.25.656 8.429 8.429 0 012.646 1.781 8.421 8.421 0 011.781 2.646 8.1 8.1 0 01.656 3.25 8.11 8.11 0 01-.656 3.25 8.43 8.43 0 01-1.781 2.646 8.422 8.422 0 01-2.646 1.781 8.102 8.102 0 01-3.25.656zm0-1.666c1.861 0 3.438-.646 4.73-1.938 1.29-1.291 1.937-2.868 1.937-4.729 0-1.861-.646-3.438-1.938-4.73C13.438 3.98 11.861 3.334 10 3.334c-1.861 0-3.437.646-4.73 1.938C3.98 6.562 3.334 8.139 3.334 10c0 1.861.646 3.438 1.938 4.73 1.292 1.29 2.868 1.937 4.729 1.937z" fill="#667085"/></svg>