<svg width="51" height="52" viewBox="0 0 51 52" fill="currentColor" xmlns="http://www.w3.org/2000/svg">
<g opacity="0.7" clip-path="url(#clip0_985_1374)">
<path d="M30.9195 22.5893C30.7491 22.5719 30.5692 22.5614 30.3844 22.5614C28.5175 22.5614 26.6581 23.4371 25.5007 24.8282C24.3425 23.4371 22.4835 22.5614 20.618 22.5614C20.433 22.5614 20.2542 22.5719 20.0802 22.5893C17.9783 22.8151 16.4993 23.5251 15.5586 24.7599C14.6259 25.9837 14.3218 27.6429 14.6556 29.6914C15.1429 32.6631 18.9912 36.2819 22.0828 39.19L22.1534 39.2566C23.0145 40.0679 23.7583 40.7675 24.2426 41.2891C24.3083 41.362 24.8985 42.0083 25.5446 42.0083C26.1949 42.0083 26.7723 41.3524 26.8244 41.2897C27.3396 40.7314 28.1747 39.9401 28.9999 39.1597C32.0572 36.2596 35.862 32.6504 36.3442 29.6902C36.6795 27.6434 36.3775 25.9849 35.4438 24.7601C34.504 23.5248 33.0247 22.8151 30.9195 22.5893Z" />
<path d="M40.4927 16.8928L42.7729 14.4872C43.3738 13.8532 43.347 12.8522 42.7135 12.2516L40.8004 10.4383C40.1666 9.83731 39.1658 9.86417 38.5649 10.4982L35.9564 13.2496C33.8997 12.0294 31.6134 11.1581 29.1791 10.7164V7.35289H32.2872C33.1608 7.35289 33.8687 6.64483 33.8687 5.77145V2.08144C33.8687 1.20795 33.1608 0.5 32.2872 0.5H18.7134C17.8399 0.5 17.1319 1.20795 17.1319 2.08144V5.77145C17.1319 6.64483 17.8399 7.35289 18.7134 7.35289H21.777V10.7248C19.3084 11.1783 16.9925 12.073 14.9151 13.326C14.8993 13.3095 14.8847 13.2924 14.868 13.2766L11.9033 10.4658C11.2692 9.86512 10.2685 9.89168 9.66758 10.5257L7.85434 12.4388C7.25365 13.0724 7.2802 14.0734 7.91419 14.6742L10.389 17.0205C7.01036 20.6852 4.94287 25.5766 4.94287 30.9425C4.94287 42.278 14.1648 51.5 25.5002 51.5C36.8356 51.5 46.0573 42.278 46.0573 30.9425C46.0576 25.5141 43.9418 20.5711 40.4927 16.8928ZM25.5003 47.8121C16.1985 47.8121 8.63078 40.2445 8.63078 30.9425C8.63078 21.6405 16.1984 14.0728 25.5003 14.0728C34.8022 14.0728 42.3698 21.6405 42.3698 30.9425C42.3698 40.2444 34.8021 47.8121 25.5003 47.8121Z" />
</g>
<defs>
<clipPath id="clip0_985_1374">
<rect width="51" height="51" fill="white" transform="translate(0 0.5)"/>
</clipPath>
</defs>
</svg>
