<svg width="23" height="22" viewBox="0 0 23 22" fill="none" xmlns="http://www.w3.org/2000/svg">
<path d="M11.5019 7.4525V11.88M10.3561 2.24583C10.9978 1.705 12.0336 1.705 12.6569 2.24583L14.1053 3.48333C14.3803 3.7125 14.9028 3.905 15.2694 3.905H16.8278C17.7994 3.905 18.5969 4.7025 18.5969 5.67417V7.2325C18.5969 7.59917 18.7894 8.1125 19.0186 8.3875L20.2561 9.83583C20.7969 10.4775 20.7969 11.5133 20.2561 12.1367L19.0186 13.585C18.7894 13.86 18.5969 14.3733 18.5969 14.74V16.2983C18.5969 17.27 17.7994 18.0675 16.8278 18.0675H15.2694C14.9028 18.0675 14.3894 18.26 14.1144 18.4892L12.6661 19.7267C12.0244 20.2675 10.9886 20.2675 10.3653 19.7267L8.91693 18.4892C8.64193 18.26 8.11943 18.0675 7.76193 18.0675H6.15776C5.18609 18.0675 4.38859 17.27 4.38859 16.2983V14.7308C4.38859 14.3733 4.20526 13.8508 3.97609 13.585L2.73859 12.1275C2.20693 11.495 2.20693 10.4683 2.73859 9.83583L3.97609 8.37833C4.20526 8.10333 4.38859 7.59 4.38859 7.2325V5.68333C4.38859 4.71167 5.18609 3.91417 6.15776 3.91417H7.74359C8.11026 3.91417 8.62359 3.72167 8.89859 3.4925L10.3561 2.24583Z" stroke="#217ABF" stroke-width="1.5" stroke-linecap="round" stroke-linejoin="round"/>
<path d="M11.4961 14.6667H11.5051" stroke="#217ABF" stroke-width="2" stroke-linecap="round" stroke-linejoin="round"/>
</svg>
