<svg width="53" height="54" viewBox="0 0 53 54" fill="currentColor" xmlns="http://www.w3.org/2000/svg">
<g opacity="0.7">
<path d="M9.25488 22.1226L14.5231 21.5661L16.1925 37.3698L10.9243 37.9263L9.25488 22.1226Z" />
<path d="M20.4978 19.1657C20.6132 19.1535 20.725 19.1187 20.8269 19.0632C20.9288 19.0078 21.0188 18.9328 21.0917 18.8425C21.1646 18.7523 21.219 18.6486 21.2519 18.5373C21.2847 18.4261 21.2953 18.3094 21.2831 18.1941L21.0967 16.4371C21.0845 16.3217 21.0496 16.2099 20.9942 16.108C20.9387 16.0061 20.8637 15.9161 20.7735 15.8432C20.6833 15.7703 20.5796 15.7158 20.4683 15.683C20.357 15.6502 20.2404 15.6396 20.125 15.6518L2.5617 17.5104C2.44634 17.5226 2.33451 17.5574 2.23261 17.6129C2.1307 17.6683 2.04072 17.7433 1.9678 17.8335C1.89488 17.9238 1.84045 18.0275 1.80761 18.1387C1.77477 18.25 1.76417 18.3667 1.77642 18.482L1.96192 20.239C1.97415 20.3543 2.00898 20.4662 2.06444 20.5681C2.11989 20.67 2.19487 20.7599 2.2851 20.8329C2.37533 20.9058 2.47904 20.9602 2.59031 20.9931C2.70158 21.0259 2.81822 21.0365 2.93359 21.0243L20.4978 19.1657Z" />
<path d="M10.4128 7.79624C9.86882 7.85225 9.356 8.07694 8.94608 8.43887C8.53616 8.80079 8.24967 9.28184 8.12671 9.81466L13.0734 9.29173C12.842 8.79549 12.4609 8.3843 11.9836 8.11603C11.5063 7.84776 10.957 7.73592 10.4128 7.79624Z" />
<path d="M5.00595 15.4742L17.3046 14.1731C17.42 14.1608 17.5318 14.126 17.6337 14.0705C17.7356 14.0151 17.8256 13.9401 17.8985 13.8499C17.9714 13.7597 18.0259 13.6559 18.0587 13.5447C18.0915 13.4334 18.1021 13.3168 18.0899 13.2014L17.9044 11.4453C17.8923 11.3299 17.8575 11.218 17.8021 11.116C17.7467 11.014 17.6717 10.9239 17.5815 10.8509C17.4912 10.7778 17.3875 10.7233 17.2762 10.6904C17.1649 10.6575 17.0481 10.6469 16.9327 10.6592L4.63495 11.9612C4.51958 11.9734 4.40775 12.0083 4.30585 12.0637C4.20395 12.1192 4.11396 12.1941 4.04104 12.2844C3.96812 12.3746 3.91369 12.4783 3.88085 12.5896C3.84801 12.7009 3.83742 12.8175 3.84966 12.9329L4.03516 14.6898C4.06008 14.9225 4.1763 15.1357 4.35831 15.2828C4.54032 15.4299 4.77324 15.4987 5.00595 15.4742Z" />
<path d="M23.2052 27.4212L24.2916 20.1647C24.4515 19.1203 24.9789 18.1673 25.7788 17.4771C26.5788 16.787 27.5988 16.405 28.6553 16.3999H42.0113C43.0681 16.405 44.0883 16.7873 44.8883 17.4778C45.6883 18.1683 46.2155 19.1217 46.375 20.1664L47.4712 27.4486C48.5962 28.5101 49.5792 29.7126 50.3959 31.0261L49.1442 18.5199C49.0166 17.2119 48.406 15.9984 47.4317 15.1164C46.4574 14.2344 45.1894 13.7472 43.8751 13.7499H26.7915C26.0137 13.751 25.2458 13.9246 24.5432 14.2582C23.8405 14.5918 23.2206 15.0771 22.7281 15.6791C22.7923 15.8646 22.8362 16.0565 22.8589 16.2515L23.0444 18.0084C23.105 18.5973 22.9666 19.1896 22.6514 19.6907C22.3361 20.1918 21.8622 20.5729 21.3051 20.7733L20.2681 31.0535C21.0827 29.7186 22.0703 28.4972 23.2052 27.4212Z" />
<path d="M15.0572 51.7182C15.6015 51.6629 16.1149 51.4387 16.5255 51.0771C16.936 50.7155 17.2232 50.2345 17.3468 49.7015L12.3958 50.2254C12.6273 50.7214 13.0087 51.1323 13.4862 51.4001C13.9637 51.668 14.5132 51.7792 15.0572 51.7182Z" />
<path d="M22.9128 42.0051C23.0281 41.9929 23.14 41.958 23.2419 41.9026C23.3438 41.8471 23.4337 41.7722 23.5067 41.6819C23.5796 41.5917 23.634 41.488 23.6669 41.3767C23.6997 41.2654 23.7103 41.1488 23.698 41.0334L23.5125 39.2765C23.5003 39.1611 23.4655 39.0493 23.41 38.9474C23.3546 38.8455 23.2796 38.7555 23.1894 38.6826C23.0991 38.6097 22.9954 38.5552 22.8842 38.5224C22.7729 38.4896 22.6562 38.479 22.5409 38.4912L4.97137 40.3462C4.85601 40.3584 4.74418 40.3933 4.64228 40.4487C4.54037 40.5042 4.45039 40.5792 4.37747 40.6694C4.30455 40.7596 4.25011 40.8633 4.21728 40.9746C4.18444 41.0859 4.17384 41.2025 4.18609 41.3179L4.37336 43.0766C4.38491 43.1922 4.4193 43.3044 4.47453 43.4067C4.52977 43.5089 4.60475 43.5992 4.69514 43.6722C4.78552 43.7453 4.88951 43.7996 5.00107 43.8322C5.11263 43.8648 5.22954 43.8748 5.34502 43.8619L22.9128 42.0051Z" />
<path d="M51.2086 39.4116C51.0032 35.5585 49.4029 31.9118 46.7063 29.152C44.0096 26.3922 40.4009 24.7078 36.5536 24.4133C32.7063 24.1188 28.8833 25.2342 25.798 27.5515C22.7128 29.8687 20.576 33.2293 19.7866 37.0063L22.3598 36.7342C22.7059 36.6975 23.0559 36.7293 23.3898 36.8278C23.7237 36.9264 24.0348 37.0898 24.3055 37.3087C24.5762 37.5275 24.8012 37.7976 24.9675 38.1034C25.1338 38.4092 25.2382 38.7448 25.2748 39.0909L25.4603 40.8479C25.497 41.194 25.4652 41.544 25.3666 41.8779C25.2681 42.2118 25.1047 42.5229 24.8858 42.7936C24.667 43.0643 24.3969 43.2893 24.0911 43.4556C23.7853 43.6219 23.4497 43.7263 23.1035 43.7629L22.941 43.7805C23.0757 44.0503 23.1624 44.3414 23.1972 44.6409L23.3827 46.397C23.4386 46.9075 23.3439 47.4232 23.1102 47.8804C22.8764 48.3377 22.5139 48.7165 22.0674 48.9701C22.3931 49.4785 22.7498 49.9665 23.1353 50.4312C23.4695 50.8364 23.8888 51.1631 24.3634 51.3882C24.838 51.6132 25.3564 51.731 25.8816 51.7332H44.785C45.3025 51.7331 45.8138 51.6203 46.2834 51.4027C46.7529 51.185 47.1694 50.8676 47.5039 50.4727C50.1024 47.392 51.4275 43.4359 51.2086 39.4116ZM48.6089 39.9884H48.5347C48.3126 39.9892 48.0984 39.9062 47.9347 39.7561C47.771 39.606 47.6698 39.3997 47.6514 39.1784C47.3837 36.343 46.1545 33.6843 44.1678 31.6438C42.181 29.6032 39.5562 28.3034 36.729 27.96C36.2654 27.9096 35.7995 27.884 35.3333 27.8832C35.099 27.8832 34.8743 27.7901 34.7087 27.6245C34.543 27.4588 34.45 27.2341 34.45 26.9999C34.45 26.7656 34.543 26.5409 34.7087 26.3752C34.8743 26.2096 35.099 26.1165 35.3333 26.1165C35.8645 26.1175 36.3953 26.147 36.9233 26.2049C40.1569 26.597 43.159 28.0834 45.4314 30.4171C47.7037 32.7508 49.1095 35.7915 49.4154 39.0344C49.434 39.2673 49.3595 39.498 49.2084 39.6761C49.0572 39.8543 48.8417 39.9653 48.6089 39.9849V39.9884Z"/>
<path d="M20.4641 44.0412L8.16546 45.3415C8.0501 45.3537 7.93827 45.3885 7.83637 45.444C7.73446 45.4994 7.64448 45.5744 7.57156 45.6647C7.49864 45.7549 7.44421 45.8586 7.41137 45.9699C7.37853 46.0811 7.36793 46.1978 7.38018 46.3131L7.56568 48.071C7.5906 48.3038 7.70694 48.5172 7.88914 48.6643C8.07135 48.8114 8.3045 48.8801 8.53735 48.8554L20.836 47.5551C20.9514 47.5429 21.0632 47.508 21.1651 47.4526C21.267 47.3971 21.357 47.3222 21.4299 47.2319C21.5028 47.1417 21.5573 47.038 21.5901 46.9267C21.6229 46.8155 21.6335 46.6988 21.6213 46.5834L21.4358 44.8274C21.4237 44.7119 21.3889 44.6 21.3335 44.498C21.2781 44.396 21.2031 44.3059 21.1129 44.2329C21.0226 44.1599 20.9189 44.1054 20.8076 44.0725C20.6963 44.0396 20.5795 44.029 20.4641 44.0412Z" />
</g>
</svg>
