<svg width="56" height="56" viewBox="0 0 56 56" fill="currentColor" xmlns="http://www.w3.org/2000/svg">
<g opacity="0.7" clip-path="url(#clip0_985_1364)">
<path fill-rule="evenodd" clip-rule="evenodd" d="M2.50524 54.9193C1.1258 54.9193 0 53.7932 0 52.4137V32.6376C0 31.2581 1.12154 30.132 2.50524 30.132H7.26275V42.5279C7.26275 43.2419 8.34786 43.2416 8.34786 42.5279V30.132H12.9833C14.3667 30.132 15.4843 31.2509 15.4843 32.6376V52.4137C15.4843 53.7932 14.3627 54.9193 12.979 54.9193H2.50524ZM10.4013 52.1785C7.61942 52.1785 7.62467 47.9545 10.4013 47.9545C13.1779 47.9545 13.1831 52.1785 10.4013 52.1785Z" />
<path fill-rule="evenodd" clip-rule="evenodd" d="M34.7719 53.3497H17.2391C16.9809 53.3497 15.083 52.364 14.7113 52.1829C14.5259 52.0924 14.4038 51.9027 14.4038 51.6943V33.3065C14.4038 31.7187 21.5104 33.085 21.2639 20.5673C21.2413 19.4139 21.2866 18.1296 22.1548 17.5236C22.6929 17.1482 23.4345 17.139 24.3483 17.4964C26.32 18.2698 27.7986 21.2682 27.8576 24.619C27.9075 27.2601 27.7897 30.0501 25.9899 32.7638H39.4303C39.5619 32.7638 39.6692 32.8008 39.7522 32.8609C41.0162 33.1933 41.949 34.3443 41.949 35.7126C41.949 36.8837 41.2655 37.896 40.2776 38.3714C41.949 39.9363 41.2698 42.7296 39.0799 43.359C40.6805 45.1279 39.6128 47.9895 37.2358 48.2648C38.947 50.3149 37.1764 53.3635 34.9035 53.3635C34.8566 53.3635 34.8126 53.3586 34.7719 53.3497Z" />
<path opacity="0.7" d="M34.4404 29.6228V9.63082H40.8244C43.4004 9.63082 45.2764 10.1535 46.4524 11.1988C47.6471 12.2442 48.2444 13.6815 48.2444 15.5108C48.2444 16.5935 48.0017 17.6108 47.5164 18.5628C47.0311 19.5148 46.2191 20.2802 45.0804 20.8588C43.9604 21.4375 42.4297 21.7268 40.4884 21.7268H38.6684V29.6228H34.4404ZM32.2004 26.6268V23.9108H42.9804V26.6268H32.2004ZM32.2004 21.7268V18.2548H40.4044V21.7268H32.2004ZM40.0684 18.2548C40.8711 18.2548 41.5617 18.1708 42.1404 18.0028C42.7191 17.8162 43.1671 17.5268 43.4844 17.1348C43.8017 16.7428 43.9604 16.2482 43.9604 15.6508C43.9604 14.7922 43.6897 14.1575 43.1484 13.7468C42.6071 13.3175 41.7577 13.1028 40.6004 13.1028H38.6684V18.2548H40.0684Z" />
<path fill-rule="evenodd" clip-rule="evenodd" d="M44.1198 34.5324C42.786 34.5324 42.4634 32.6565 43.7234 32.2158C49.6438 30.144 53.6122 24.5255 53.6122 18.2563C53.6122 10.0991 46.9768 3.46375 38.8196 3.46375C31.9824 3.46375 26.0742 8.09295 24.45 14.7359C24.0762 16.2649 21.757 15.6933 22.1295 14.1702C24.0175 6.45856 30.8812 1.08057 38.8196 1.08057C48.2949 1.08057 56 8.78563 56 18.2609C56 25.4315 51.605 32.5328 44.4758 34.4858C44.3607 34.5173 44.2396 34.5321 44.1198 34.5321V34.5324Z" />
</g>
<defs>
<clipPath id="clip0_985_1364">
<rect width="56" height="56" fill="white"/>
</clipPath>
</defs>
</svg>
