<svg width="20" height="20" viewBox="0 0 20 20" fill="none" xmlns="http://www.w3.org/2000/svg">
<path d="M10 14.1666C10.2361 14.1666 10.4342 14.0866 10.5942 13.9266C10.7542 13.7666 10.8339 13.5688 10.8334 13.3333V9.99996C10.8334 9.76385 10.7534 9.56579 10.5934 9.40579C10.4334 9.24579 10.2356 9.16607 10 9.16663C9.76391 9.16663 9.56585 9.24663 9.40585 9.40663C9.24585 9.56663 9.16613 9.7644 9.16669 9.99996V13.3333C9.16669 13.5694 9.24669 13.7675 9.40669 13.9275C9.56669 14.0875 9.76446 14.1672 10 14.1666ZM10 7.49996C10.2361 7.49996 10.4342 7.41996 10.5942 7.25996C10.7542 7.09996 10.8339 6.90218 10.8334 6.66663C10.8334 6.43051 10.7534 6.23246 10.5934 6.07246C10.4334 5.91246 10.2356 5.83274 10 5.83329C9.76391 5.83329 9.56585 5.91329 9.40585 6.07329C9.24585 6.23329 9.16613 6.43107 9.16669 6.66663C9.16669 6.90274 9.24669 7.10079 9.40669 7.26079C9.56669 7.42079 9.76446 7.50051 10 7.49996ZM10 18.3333C8.84724 18.3333 7.76391 18.1144 6.75002 17.6766C5.73613 17.2388 4.85419 16.6452 4.10419 15.8958C3.35419 15.1458 2.76058 14.2638 2.32335 13.25C1.88613 12.2361 1.66724 11.1527 1.66669 9.99996C1.66669 8.84718 1.88558 7.76385 2.32335 6.74996C2.76113 5.73607 3.35474 4.85413 4.10419 4.10413C4.85419 3.35413 5.73613 2.76051 6.75002 2.32329C7.76391 1.88607 8.84724 1.66718 10 1.66663C11.1528 1.66663 12.2361 1.88551 13.25 2.32329C14.2639 2.76107 15.1459 3.35468 15.8959 4.10413C16.6459 4.85413 17.2397 5.73607 17.6775 6.74996C18.1153 7.76385 18.3339 8.84718 18.3334 9.99996C18.3334 11.1527 18.1145 12.2361 17.6767 13.25C17.2389 14.2638 16.6453 15.1458 15.8959 15.8958C15.1459 16.6458 14.2639 17.2397 13.25 17.6775C12.2361 18.1152 11.1528 18.3338 10 18.3333ZM10 16.6666C11.8611 16.6666 13.4375 16.0208 14.7292 14.7291C16.0209 13.4375 16.6667 11.8611 16.6667 9.99996C16.6667 8.13885 16.0209 6.56246 14.7292 5.27079C13.4375 3.97913 11.8611 3.33329 10 3.33329C8.13891 3.33329 6.56252 3.97913 5.27085 5.27079C3.97919 6.56246 3.33335 8.13885 3.33335 9.99996C3.33335 11.8611 3.97919 13.4375 5.27085 14.7291C6.56252 16.0208 8.13891 16.6666 10 16.6666Z" fill="#667085"/>
</svg>
