<svg width="17" height="16" viewBox="0 0 17 16" fill="none" xmlns="http://www.w3.org/2000/svg">
<path fill-rule="evenodd" clip-rule="evenodd" d="M8.8751 14.4C12.4097 14.4 15.2751 11.5346 15.2751 7.99998C15.2751 4.46535 12.4097 1.59998 8.8751 1.59998C5.34048 1.59998 2.4751 4.46535 2.4751 7.99998C2.4751 11.5346 5.34048 14.4 8.8751 14.4ZM11.8408 6.96566C12.1532 6.65324 12.1532 6.14671 11.8408 5.83429C11.5284 5.52187 11.0218 5.52187 10.7094 5.83429L8.0751 8.4686L7.04078 7.43429C6.72836 7.12187 6.22183 7.12187 5.90941 7.43429C5.59699 7.74671 5.59699 8.25324 5.90941 8.56566L7.50941 10.1657C7.82183 10.4781 8.32836 10.4781 8.64078 10.1657L11.8408 6.96566Z" fill="#1C8AC8"/>
</svg>
