<svg width="64" height="64" viewBox="0 0 64 64" fill="none" xmlns="http://www.w3.org/2000/svg">
<path d="M2 32C2 15.4315 15.4315 2 32 2C48.5685 2 62 15.4315 62 32C62 34.5647 61.6782 37.0543 61.0727 39.4305C60.7574 40.6678 59.3397 41.1961 58.2339 40.5577C57.4112 40.0827 57.0361 39.1029 57.2611 38.18C57.744 36.1992 58 34.1295 58 32C58 17.6406 46.3594 6 32 6C17.6406 6 6 17.6406 6 32C6 46.3594 17.6406 58 32 58C40.8094 58 48.5955 53.6188 53.2982 46.9164C53.9278 46.0192 55.1349 45.6967 56.0841 46.2447C57.0489 46.8017 57.3786 48.0436 56.748 48.9619C51.3409 56.8359 42.2735 62 32 62C15.4315 62 2 48.5685 2 32Z" fill="#23B36E"/>
<path d="M48.3635 19.5368C49.1716 20.2898 49.2163 21.5553 48.4633 22.3635L27.9633 44.3635C27.5698 44.7857 27.0131 45.0174 26.4362 44.999C25.8593 44.9805 25.3185 44.7138 24.9527 44.2672L15.4527 32.6672C14.7529 31.8126 14.8783 30.5525 15.7329 29.8527C16.5874 29.1528 17.8475 29.2782 18.5474 30.1328L26.5972 39.962L45.5368 19.6366C46.2899 18.8284 47.5554 18.7838 48.3635 19.5368Z" fill="#23B36E"/>
</svg>
