<svg xmlns="http://www.w3.org/2000/svg" xmlns:xlink="http://www.w3.org/1999/xlink"><defs><clipPath id="clip0_985_1364"><path fill="#fff" d="M0 0h56v56H0z"/></clipPath><clipPath id="clip0_985_1374"><path fill="#fff" transform="translate(0 .5)" d="M0 0h51v51H0z"/></clipPath><clipPath id="clip0_988_2729"><path fill="#fff" d="M0 0h32v30H0z"/></clipPath></defs><symbol id="icon-best-price"><g fill="currentColor"><g opacity=".7" clip-path="url(#clip0_985_1364)"><path fill-rule="evenodd" clip-rule="evenodd" d="M2.505 54.92A2.51 2.51 0 010 52.413V32.638a2.508 2.508 0 012.505-2.506h4.758v12.396c0 .714 1.085.714 1.085 0V30.132h4.635a2.5 2.5 0 012.501 2.506v19.776a2.508 2.508 0 01-2.505 2.505H2.505zm7.896-2.742c-2.782 0-2.776-4.223 0-4.223 2.777 0 2.782 4.224 0 4.224z"/><path fill-rule="evenodd" clip-rule="evenodd" d="M34.772 53.35H17.239c-.258 0-2.156-.986-2.528-1.167a.547.547 0 01-.307-.489V33.306c0-1.587 7.106-.221 6.86-12.739-.023-1.153.023-2.437.89-3.043.539-.376 1.28-.385 2.194-.028 1.972.774 3.45 3.772 3.51 7.123.05 2.641-.068 5.431-1.868 8.145h13.44c.132 0 .24.037.322.097a2.95 2.95 0 01.526 5.51c1.671 1.565.992 4.359-1.198 4.988 1.6 1.769.533 4.63-1.844 4.906 1.711 2.05-.06 5.099-2.332 5.099a.616.616 0 01-.132-.014z"/><path opacity=".7" d="M34.44 29.623V9.63h6.384c2.576 0 4.452.522 5.628 1.568 1.195 1.045 1.792 2.482 1.792 4.312 0 1.082-.242 2.1-.728 3.052-.485.952-1.297 1.717-2.436 2.296-1.12.578-2.65.868-4.592.868h-1.82v7.896H34.44zm-2.24-2.996V23.91h10.78v2.716H32.2zm0-4.9v-3.472h8.204v3.472H32.2zm7.868-3.472c.803 0 1.494-.084 2.072-.252.58-.187 1.027-.476 1.344-.868.318-.392.476-.887.476-1.484 0-.859-.27-1.493-.812-1.904-.54-.43-1.39-.644-2.548-.644h-1.932v5.152h1.4z"/><path fill-rule="evenodd" clip-rule="evenodd" d="M44.12 34.532c-1.334 0-1.657-1.875-.397-2.316 5.92-2.072 9.89-7.69 9.89-13.96 0-8.157-6.636-14.792-14.793-14.792a14.75 14.75 0 00-14.37 11.272c-.374 1.529-2.693.957-2.32-.566A17.138 17.138 0 0138.82 1.08C48.295 1.08 56 8.787 56 18.26c0 7.171-4.395 14.273-11.524 16.226a1.355 1.355 0 01-.356.046z"/></g></g></symbol><symbol id="icon-check-circle"><g fill="none"><path fill-rule="evenodd" clip-rule="evenodd" d="M8.875 14.4a6.4 6.4 0 100-12.8 6.4 6.4 0 000 12.8zm2.966-7.434a.8.8 0 00-1.132-1.132L8.075 8.47 7.041 7.434a.8.8 0 10-1.132 1.132l1.6 1.6a.8.8 0 001.132 0l3.2-3.2z" fill="#1C8AC8"/></g></symbol><symbol id="icon-check"><g fill="none"><path fill-rule="evenodd" clip-rule="evenodd" d="M14.63 5.68c-.342.29-.512.436-.694.558-.418.28-.886.474-1.38.571-.214.043-.437.06-.884.096-1.122.09-1.683.135-2.15.3A3.798 3.798 0 007.204 9.52c-.165.468-.21 1.03-.3 2.151-.035.447-.053.67-.096.885a3.799 3.799 0 01-.57 1.379c-.123.182-.268.352-.559.693-.73.857-1.095 1.285-1.309 1.733a3.798 3.798 0 000 3.276c.214.448.58.876 1.31 1.733.29.34.435.511.557.693.28.417.474.886.571 1.38.043.214.06.437.096.884.09 1.122.135 1.683.3 2.15a3.798 3.798 0 002.316 2.317c.468.165 1.03.21 2.151.3.447.035.67.053.885.096.493.097.961.291 1.379.57.182.123.352.268.693.559.857.73 1.285 1.095 1.733 1.309a3.798 3.798 0 003.276 0c.448-.214.876-.58 1.733-1.31.34-.29.511-.435.693-.557.417-.28.886-.474 1.38-.571.214-.043.437-.06.884-.096 1.122-.09 1.683-.135 2.15-.3a3.798 3.798 0 002.317-2.316c.165-.468.21-1.03.3-2.151.035-.447.053-.67.096-.885.097-.493.291-.962.57-1.379.123-.182.268-.352.559-.693.73-.857 1.095-1.285 1.309-1.733a3.798 3.798 0 000-3.276c-.214-.448-.58-.876-1.31-1.733-.29-.34-.435-.511-.557-.693a3.799 3.799 0 01-.571-1.38c-.043-.214-.06-.437-.096-.884-.09-1.122-.135-1.683-.3-2.15a3.798 3.798 0 00-2.316-2.317c-.468-.165-1.03-.21-2.151-.3-.447-.035-.67-.053-.885-.096a3.797 3.797 0 01-1.379-.57c-.182-.123-.352-.268-.693-.559-.857-.73-1.285-1.095-1.733-1.309a3.798 3.798 0 00-3.276 0c-.448.214-.876.58-1.733 1.31zm9.493 9.328a1.14 1.14 0 00-1.611-1.611l-6.79 6.79-2.234-2.232a1.14 1.14 0 00-1.61 1.611l3.037 3.039a1.14 1.14 0 001.612 0l7.596-7.597z" fill="#1C8AC8"/></g></symbol><symbol id="icon-crownsvg"><g fill="none"><path d="M31.453 20.186l.32-3.41c.253-2.677.378-4.016-.08-4.57a1.39 1.39 0 00-.945-.514c-.666-.058-1.502.894-3.175 2.798-.865.985-1.297 1.477-1.78 1.554a1.295 1.295 0 01-.786-.126c-.446-.224-.743-.833-1.337-2.05L20.538 7.45C19.416 5.15 18.854 4 18 4c-.854 0-1.416 1.15-2.538 3.45l-3.132 6.418c-.594 1.217-.891 1.826-1.337 2.05-.247.125-.519.168-.786.126-.483-.077-.915-.569-1.78-1.554-1.673-1.904-2.51-2.856-3.175-2.798a1.39 1.39 0 00-.945.515c-.458.553-.332 1.892-.08 4.57l.32 3.41c.53 5.617.793 8.426 2.45 10.12C8.651 32 11.132 32 16.096 32h3.807c4.963 0 7.444 0 9.1-1.694 1.655-1.693 1.92-4.502 2.449-10.12z" fill="#1C8AC8"/></g></symbol><symbol id="icon-gym"><g fill="currentColor"><g opacity=".7"><path d="M9.255 22.123l5.268-.557 1.67 15.804-5.269.556-1.67-15.803zM20.498 19.166a.882.882 0 00.785-.972l-.186-1.757a.884.884 0 00-.972-.785L2.562 17.51a.882.882 0 00-.786.972l.186 1.757a.884.884 0 00.972.785l17.564-1.858zM10.413 7.796a2.622 2.622 0 00-2.286 2.019l4.946-.523a2.618 2.618 0 00-2.66-1.496zM5.006 15.474l12.299-1.3a.884.884 0 00.785-.973l-.186-1.756a.883.883 0 00-.971-.786L4.635 11.961a.884.884 0 00-.785.972l.185 1.757a.883.883 0 00.971.784zM23.205 27.421l1.087-7.256a4.437 4.437 0 014.363-3.765h13.356a4.436 4.436 0 014.364 3.766l1.096 7.283a17.95 17.95 0 012.925 3.577L49.144 18.52a5.283 5.283 0 00-5.269-4.77H26.791a5.26 5.26 0 00-4.063 1.93c.064.185.108.377.13.572l.186 1.756a2.65 2.65 0 01-1.739 2.765l-1.037 10.28a17.737 17.737 0 012.937-3.632zM15.057 51.718a2.623 2.623 0 002.29-2.017l-4.951.524a2.615 2.615 0 002.661 1.493zM22.913 42.005a.884.884 0 00.785-.972l-.186-1.757a.882.882 0 00-.971-.785L4.97 40.346a.884.884 0 00-.785.972l.187 1.759a.879.879 0 00.972.785l17.568-1.857z"/><path d="M51.209 39.412a15.89 15.89 0 00-31.422-2.406l2.573-.272a2.652 2.652 0 012.915 2.357l.185 1.757a2.65 2.65 0 01-2.357 2.915l-.162.018c.135.27.221.56.256.86l.186 1.756a2.63 2.63 0 01-1.316 2.573c.326.508.683.997 1.068 1.461a3.581 3.581 0 002.747 1.302h18.903a3.566 3.566 0 002.719-1.26 15.823 15.823 0 003.705-11.061zm-2.6.576h-.074a.883.883 0 01-.884-.81A12.483 12.483 0 0036.73 27.96c-.464-.05-.93-.076-1.396-.077a.883.883 0 010-1.767c.532.002 1.062.031 1.59.089a14.274 14.274 0 0112.492 12.83.883.883 0 01-.806.95v.003z"/><path d="M20.464 44.041l-12.299 1.3a.882.882 0 00-.785.972l.186 1.758a.883.883 0 00.971.784l12.299-1.3a.884.884 0 00.785-.972l-.185-1.756a.883.883 0 00-.972-.786z"/></g></g></symbol><symbol id="icon-heart"><g fill="currentColor"><g opacity=".7" clip-path="url(#clip0_985_1374)"><path d="M30.92 22.59a5.281 5.281 0 00-.536-.029c-1.867 0-3.726.876-4.883 2.267-1.159-1.39-3.018-2.267-4.883-2.267-.185 0-.364.01-.538.028-2.102.226-3.58.936-4.521 2.17-.933 1.225-1.237 2.884-.903 4.932.487 2.972 4.335 6.59 7.427 9.499l.07.067c.862.81 1.605 1.51 2.09 2.032.065.073.655.72 1.302.72.65 0 1.227-.657 1.28-.72.515-.558 1.35-1.349 2.175-2.13 3.057-2.9 6.862-6.509 7.344-9.469.335-2.047.033-3.705-.9-4.93-.94-1.235-2.42-1.945-4.525-2.17z"/><path d="M40.493 16.893l2.28-2.406c.6-.634.574-1.635-.06-2.235L40.8 10.438a1.581 1.581 0 00-2.235.06l-2.609 2.752a20.417 20.417 0 00-6.777-2.534V7.353h3.108c.874 0 1.582-.708 1.582-1.582v-3.69c0-.873-.708-1.581-1.582-1.581H18.713c-.873 0-1.581.708-1.581 1.581v3.69c0 .874.708 1.582 1.581 1.582h3.064v3.372a20.42 20.42 0 00-6.862 2.601c-.016-.017-.03-.034-.047-.05l-2.965-2.81a1.582 1.582 0 00-2.235.06l-1.814 1.913c-.6.633-.574 1.634.06 2.235l2.475 2.346a20.48 20.48 0 00-5.446 13.922C4.943 42.279 14.165 51.5 25.5 51.5c11.336 0 20.557-9.222 20.557-20.558a20.48 20.48 0 00-5.564-14.05zM25.5 47.813c-9.302 0-16.87-7.569-16.87-16.87 0-9.303 7.568-16.87 16.87-16.87 9.302 0 16.87 7.567 16.87 16.87 0 9.301-7.568 16.87-16.87 16.87z"/></g></g></symbol><symbol id="icon-information"><g fill="none"><path d="M11.502 7.452v4.428m-1.146-9.634c.642-.541 1.678-.541 2.3 0l1.45 1.237c.274.23.797.422 1.163.422h1.559c.971 0 1.769.797 1.769 1.77v1.558c0 .366.192.88.422 1.154l1.237 1.449c.54.641.54 1.677 0 2.3l-1.237 1.449c-.23.275-.422.788-.422 1.155v1.558c0 .972-.798 1.77-1.77 1.77H15.27c-.366 0-.88.192-1.155.421l-1.448 1.238c-.642.54-1.677.54-2.3 0l-1.45-1.238c-.274-.229-.797-.422-1.154-.422H6.158c-.972 0-1.77-.797-1.77-1.769v-1.567c0-.358-.183-.88-.412-1.146L2.74 12.127c-.532-.632-.532-1.659 0-2.291l1.237-1.458c.23-.275.413-.788.413-1.146V5.684c0-.971.797-1.769 1.769-1.769h1.586c.366 0 .88-.192 1.155-.421l1.457-1.247z" stroke="#217ABF" stroke-width="1.5" stroke-linecap="round" stroke-linejoin="round"/><path d="M11.496 14.667h.01" stroke="#217ABF" stroke-width="2" stroke-linecap="round" stroke-linejoin="round"/></g></symbol><symbol id="icon-pin"><g fill="none"><path d="M10.389 0C4.66 0 0 4.66 0 10.389c0 2.187.674 4.28 1.967 6.075l7.235 9.754c.28.374.72.595 1.187.595h.001c.467 0 .907-.222 1.187-.596l7.528-10.182a10.324 10.324 0 001.672-5.646C20.777 4.66 16.117 0 10.39 0zm0 14.84a4.457 4.457 0 01-4.453-4.451 4.457 4.457 0 014.453-4.453 4.457 4.457 0 014.452 4.453 4.457 4.457 0 01-4.452 4.452z" fill="#F3F6F8"/></g></symbol><symbol id="icon-sun"><g fill="none"><path d="M29 18c0 6.075-4.925 11-11 11S7 24.075 7 18 11.925 7 18 7s11 4.925 11 11z" fill="#1C8AC8"/><path fill-rule="evenodd" clip-rule="evenodd" d="M18 1.875c.621 0 1.125.504 1.125 1.125v1.5a1.125 1.125 0 01-2.25 0V3c0-.621.504-1.125 1.125-1.125zM6.598 6.598c.44-.44 1.152-.44 1.59 0l.59.59a1.125 1.125 0 11-1.59 1.59l-.59-.59a1.125 1.125 0 010-1.59zm22.804 0c.439.44.439 1.152 0 1.591l-.59.59a1.125 1.125 0 01-1.59-1.591l.589-.59c.44-.439 1.151-.439 1.59 0zM1.875 18c0-.621.504-1.125 1.125-1.125h1.5a1.125 1.125 0 010 2.25H3A1.125 1.125 0 011.875 18zm28.5 0c0-.621.504-1.125 1.125-1.125H33a1.125 1.125 0 010 2.25h-1.5A1.125 1.125 0 0130.375 18zm-3.154 9.221c.44-.439 1.152-.439 1.591 0l.59.59a1.125 1.125 0 01-1.591 1.59l-.59-.588a1.125 1.125 0 010-1.592zm-18.443 0c.44.44.44 1.152 0 1.592l-.59.59a1.125 1.125 0 01-1.59-1.592l.59-.59c.439-.439 1.15-.439 1.59 0zM18 30.376c.621 0 1.125.504 1.125 1.125V33a1.125 1.125 0 01-2.25 0v-1.5c0-.621.504-1.125 1.125-1.125z" fill="#1C8AC8"/></g></symbol><symbol id="logo"><g fill="none"><path fill-rule="evenodd" clip-rule="evenodd" d="M82.26 1.856l-3.477 1.838 3.739.1c2.056.056 5.422.056 7.478 0l3.74-.1-3.56-1.856C88.223.818 86.423-.01 86.18 0c-.242.01-2.006.845-3.92 1.856zm-3.303 6.965v4.242h6.608V9.528h-1.739c-1.314 0-1.739-.13-1.739-.53 0-.445.734-.53 4.522-.53 3.787 0 4.521.085 4.521.53 0 .407-.444.53-1.913.53h-1.913V13.09l3.218-.102 3.217-.101.098-4.155.098-4.154H78.957v4.243zM56.369 6.99c-1.285.701-2.456 2.557-2.456 3.892 0 2.326 1.964 4.168 5.154 4.834 1.298.271 1.744.986 1.103 1.77-.636.78-2.409.631-4.083-.342l-1.478-.859v1.915c0 1.8.068 1.952 1.13 2.525 1.67.901 5.142.856 6.408-.084 1.403-1.041 2.325-3.086 2.054-4.553-.346-1.873-1.404-2.932-3.607-3.61-2.518-.776-2.995-1.116-2.469-1.76.565-.692 2.727-.597 4.236.185l1.291.669v-4.09l-1.398-.568c-1.862-.758-4.415-.724-5.885.077zm11.203-.14c-2.19 1.005-3.145 3.975-2 6.224.6 1.182 1.773 1.887 4.144 2.494 1.853.474 2.38 1.234 1.384 1.992-.879.668-3.085.373-4.357-.582-.536-.404-1.06-.734-1.164-.734-.103 0-.188.77-.188 1.713 0 2.025.515 2.627 2.768 3.238 3.919 1.06 6.971-.955 6.971-4.603 0-2.491-.874-3.346-4.566-4.46-1.011-.305-1.694-.717-1.694-1.021 0-1.116 3.38-1.068 5.094.073l.819.545V9.753c0-1.748-.107-2.048-.921-2.59-1.226-.816-4.805-.994-6.29-.312zm46.863.265c-2.2 1.154-3.131 3.105-3.131 6.564 0 4.18 1.459 6.692 4.365 7.52 3.116.886 6.338-.385 7.635-3.015.542-1.097.696-2.115.696-4.591 0-5.037-1.439-6.865-5.621-7.142-2.001-.133-2.628-.027-3.944.664zm26.927-.287c-.59.272-1.427.95-1.86 1.508-.659.847-.763 1.329-.633 2.93.185 2.296 1.004 3.18 3.805 4.1 2.436.801 2.957 1.291 2.196 2.065-.81.823-2.247.72-4.123-.293l-1.617-.874v1.858c0 1.678.099 1.918 1.015 2.468 3.762 2.258 8.719.15 8.723-3.71.003-2.572-1.067-3.692-4.517-4.733-1.73-.523-2.263-1.281-1.192-1.698.987-.385 2.378-.213 3.884.482l1.479.682V9.695c0-1.685-.112-1.993-.921-2.532-1.204-.802-4.805-.994-6.239-.334zM0 13.947v7.248H3.478v-5.303H9.74v-3.536H3.48v-2.121h6.26V6.699H0v7.248zm11.13 0v7.248h3.827V6.699H11.13v7.248zm5.218-5.48v1.768h3.826v10.997L22 21.125l1.826-.107.096-5.392.096-5.391h3.46V6.699h-11.13v1.768zm12.522 5.466v7.262h3.826l.015-4.685.016-4.684 1.95 4.7 1.95 4.698 2.295-.103 2.295-.103.095-7.16.094-7.159h-3.84l-.02 4.155-.018 4.154-1.506-4.066-1.506-4.066-2.823-.102-2.823-.103v7.262zm14.26.014v7.248h9.74V17.306h-2.957c-2.922 0-2.956-.01-2.956-.884s.034-.884 2.956-.884h2.957v-3.535h-2.957c-2.922 0-2.956-.01-2.956-.884s.034-.884 2.956-.884h2.957V6.699h-9.74v7.248zm54.957 0v7.248H101.565v-5.657h4.174v5.657h3.826V6.699h-3.826v5.304h-4.174V6.699h-3.478v7.248zm27.827-1.68c.001 4.896.084 5.706.679 6.699 1.062 1.77 2.28 2.393 4.687 2.4 2.696.007 4.165-.633 5.152-2.246.711-1.163.797-1.81.909-6.852l.123-5.569h-3.899v4.773c0 4.302-.069 4.843-.695 5.48-.819.832-1.694.901-2.63.206-.602-.447-.688-1.042-.795-5.48l-.12-4.979h-3.412l.001 5.569zm24.347 1.68v7.248H160V17.306h-3.155c-3.072 0-3.151-.021-3.043-.796.104-.746.299-.802 3.155-.897L160 15.51v-3.508h-3.13c-3.108 0-3.131-.007-3.131-.884s.023-.884 3.131-.884H160V6.699h-9.739v7.248zm-30.961-3.08c.837.69 1.31 3.208.908 4.836-.553 2.24-2.713 2.978-4.224 1.442-.719-.731-.854-1.206-.854-3.021s.135-2.29.854-3.021c1.009-1.025 2.249-1.113 3.316-.236zm-40.343 7.146v4.242h14.956V13.77h-6.609V17.66h1.913c1.469 0 1.913.123 1.913.53 0 .445-.734.531-4.521.531-3.788 0-4.522-.086-4.522-.53 0-.4.425-.53 1.74-.53h1.738v-3.89h-6.608v4.243zm9.304 1.674c-.909.073-2.396.073-3.304 0-.91-.073-.166-.133 1.652-.133 1.817 0 2.56.06 1.652.133zm-9.183 3.54c.089.146 1.742 1.055 3.673 2.02L86.26 27l3.51-1.754c1.93-.964 3.584-1.873 3.673-2.018.09-.146-3.143-.266-7.183-.266s-7.272.12-7.183.266z" fill="#000"/></g></symbol><symbol id="order-cancel"><g fill="none"><path d="M2.5 32c0-16.569 13.431-30 30-30 16.569 0 30 13.431 30 30 0 2.565-.322 5.054-.927 7.43-.316 1.238-1.733 1.766-2.84 1.128-.822-.475-1.197-1.455-.972-2.378.483-1.98.739-4.05.739-6.18 0-14.36-11.64-26-26-26s-26 11.64-26 26 11.64 26 26 26c8.81 0 16.596-4.381 21.298-11.084.63-.897 1.837-1.22 2.786-.671.965.557 1.295 1.799.664 2.717C51.841 56.836 42.774 62 32.5 62c-16.569 0-30-13.431-30-30z" fill="#A71C1C"/><path d="M18.5 19l26.345 26.345M18.5 45.345L44.845 19" stroke="#A71C1C" stroke-width="4" stroke-linecap="round"/></g></symbol><symbol id="order-check"><g fill="none"><path d="M2 32C2 15.431 15.431 2 32 2c16.569 0 30 13.431 30 30 0 2.565-.322 5.054-.927 7.43-.316 1.238-1.733 1.766-2.84 1.128-.822-.475-1.197-1.455-.972-2.378.483-1.98.739-4.05.739-6.18C58 17.64 46.36 6 32 6S6 17.64 6 32s11.64 26 26 26c8.81 0 16.596-4.381 21.298-11.084.63-.897 1.837-1.22 2.786-.671.965.557 1.295 1.799.664 2.717C51.341 56.836 42.274 62 32 62 15.431 62 2 48.569 2 32z" fill="#23B36E"/><path d="M48.364 19.537a2 2 0 01.1 2.826l-20.5 22a2 2 0 01-3.011-.096l-9.5-11.6a2 2 0 013.094-2.534l8.05 9.829 18.94-20.325a2 2 0 012.827-.1z" fill="#23B36E"/></g></symbol><symbol id="scroll"><g fill="currentColor"><g clip-path="url(#clip0_988_2729)"><path d="M27.487 7.365l1.07 1.088L32 4.767l-3.444-3.685-1.069 1.088 2.375 2.597-2.375 2.598z"/><path d="M23.329 9.244L27.518 4.8l.03-.032-4.22-4.476-1.121 1.142 3.1 3.335-3.1 3.335 1.122 1.141zM14.203 2.357a3.311 3.311 0 014.735 0 3.456 3.456 0 01.178 4.623l.004 1.789c.275-.182.531-.393.764-.63 1.827-1.859 1.827-4.886 0-6.745a4.634 4.634 0 00-6.627 0c-1.826 1.86-1.827 4.887 0 6.746.258.261.544.491.854.685l-.005-1.752a3.456 3.456 0 01.097-4.716z"/><path d="M29.907 21.243l-.006-1.291-.017-4.362a2.575 2.575 0 00-.734-1.793 2.486 2.486 0 00-.81-.554 2.45 2.45 0 00-.957-.193h-.061c-.404.008-.8.118-1.152.32a2.553 2.553 0 00-.918-1.263 2.482 2.482 0 00-1.47-.478h-.048a2.42 2.42 0 00-1.306.417 2.6 2.6 0 00-.465-.653 2.45 2.45 0 00-1.712-.744H20.197a2.453 2.453 0 00-1.073.251L19.12 8.77l-.004-1.789-.003-1.626a2.66 2.66 0 00-.752-1.839 2.45 2.45 0 00-1.717-.744h-.054c-1.38.01-2.495 1.158-2.49 2.562l.006 1.74.005 1.753.021 7.152a2.464 2.464 0 00-2.395-.487h-.003l-.004.001c-1.313.436-2.034 1.878-1.607 3.215l.946 2.963.002.006.003.007.897 2.707a8.399 8.399 0 001.966 3.224c1.457 1.484 3.377 2.33 5.406 2.383h.004L19.6 30h.004l1.78-.008a8.452 8.452 0 004.359-1.233c2.432-1.483 3.899-3.786 4.132-6.486a7.33 7.33 0 00.035-.692v-.004l-.002-.334zm-10.532 7.474c-1.749-.046-3.36-.797-4.55-2.008a7.068 7.068 0 01-1.662-2.729l-.897-2.706-.946-2.963a1.29 1.29 0 01.074-.968 1.254 1.254 0 011.108-.694c.264-.001.521.083.736.24.214.158.373.381.454.637l.796 2.49.045.14a.434.434 0 00.424.317.444.444 0 00.45-.46L15.36 5.328c-.001-.337.13-.66.362-.9.233-.238.55-.373.88-.375h.024c.319.006.622.138.846.369.244.25.382.586.383.938l.04 12.655c0 .143.056.28.154.383a.536.536 0 00.371.166h.019c.3-.001.543-.273.541-.581l-.018-4.777c-.001-.337.129-.66.362-.9.233-.239.55-.374.88-.376h.024c.319.006.622.138.846.37.244.249.382.586.383.939l.021 5.424c0 .143.055.28.154.383a.536.536 0 00.39.166c.3-.001.543-.273.542-.581l-.019-4.404c-.002-.699.532-1.3 1.219-1.317h.023c.331-.001.65.131.884.369.235.237.368.56.37.896l.02 5.246a.557.557 0 00.165.383.537.537 0 00.76-.003.557.557 0 00.16-.384l-.014-3.77c-.003-.698.532-1.3 1.218-1.316h.023c.331-.002.65.13.884.368.235.237.368.56.37.896l.017 4.362.005 1.292.002.335c0 .112-.01.441-.027.549-.202 2.443-1.566 4.33-3.53 5.528a7.206 7.206 0 01-3.716 1.051l-1.78.008-.221-.003zM5.513 2.17l-1.07-1.087L1 4.768l3.444 3.685 1.069-1.088-2.375-2.597L5.513 2.17z"/><path d="M9.671.291L5.482 4.736l-.03.032 4.22 4.476 1.121-1.142-3.1-3.334 3.1-3.336L9.671.291z"/></g></g></symbol><symbol id="tooltip"><g fill="none"><path d="M9 13.167c.236 0 .434-.08.594-.24.16-.16.24-.358.24-.594V9a.807.807 0 00-.24-.594.803.803 0 00-.594-.24.807.807 0 00-.594.24.803.803 0 00-.24.594v3.333c0 .236.08.435.24.595.16.16.358.24.594.239zM9 6.5c.236 0 .434-.08.594-.24.16-.16.24-.358.24-.593a.807.807 0 00-.24-.594.803.803 0 00-.594-.24.807.807 0 00-.594.24.803.803 0 00-.24.594c0 .236.08.434.24.594.16.16.358.24.594.24zm0 10.833a8.11 8.11 0 01-3.25-.656 8.426 8.426 0 01-2.646-1.781 8.41 8.41 0 01-1.78-2.646A8.13 8.13 0 01.666 9a8.11 8.11 0 01.656-3.25 8.428 8.428 0 011.781-2.646 8.41 8.41 0 012.646-1.78A8.13 8.13 0 019 .666a8.11 8.11 0 013.25.656 8.43 8.43 0 012.646 1.781 8.422 8.422 0 011.781 2.646A8.102 8.102 0 0117.333 9a8.11 8.11 0 01-.656 3.25 8.43 8.43 0 01-1.781 2.646 8.423 8.423 0 01-2.646 1.782 8.1 8.1 0 01-3.25.655zm0-1.666c1.861 0 3.438-.646 4.73-1.938 1.29-1.291 1.937-2.868 1.937-4.729 0-1.861-.646-3.437-1.938-4.73C12.438 2.98 10.861 2.334 9 2.334c-1.861 0-3.438.646-4.73 1.938C2.98 5.563 2.334 7.139 2.334 9c0 1.86.646 3.437 1.938 4.728C5.562 15.021 7.139 15.667 9 15.667z" fill="#667085"/></g></symbol></svg>